<svg width="1441" height="633" viewBox="0 0 1441 633" fill="none" xmlns="http://www.w3.org/2000/svg">
<g clip-path="url(#clip0_2527_6513)">
<path d="M960.801 625.44L766.495 632.667L569.474 630.246L380.558 618.361M199.241 274.715L327.557 257.84L464.949 246.048L608.042 239.487L753.539 238.156M753.539 238.156L898.241 242.112L1038.89 251.297M753.539 238.156L717.1 405.536M-166.411 462.313L546.493 416.494L558.186 423.462L575.871 429.839L598.948 435.383L626.562 439.856L657.724 443.072L691.233 444.921L725.752 445.29L759.92 444.181L792.401 441.631L821.935 437.768L876.388 454.495L914.668 446.769L983.411 461.111L1023.76 448.673L1524.83 519.165M-173.201 424.147L717.101 405.535L738.179 424.572L754.216 423.334L831.687 460.466L876.385 454.496L989.556 489.299L1053.67 475.788M1053.67 475.788L1103.7 459.93L1138.12 442.427L1584.27 481.536M1053.67 475.788L983.406 461.111L932.231 471.665L872.097 479.834L805.408 485.231L734.938 487.597L663.692 486.802L594.754 482.902L531.012 476.082L481.233 494.953M1053.67 475.788L1429.57 554.245M-124.896 500.552L-47.4638 537.148L65.1254 570.232L209.711 597.882M-124.896 500.552L-166.414 462.312L-173.201 424.145L-147.894 387.457L-62.5119 389.231M-124.896 500.552L-35.0723 490.405M209.711 597.882L380.554 618.36L419.183 593.926M209.711 597.882L323.096 554.91L456.571 570.288L603.018 579.159L755.245 580.971L905.531 575.592M419.183 593.926L267.248 576.072L137.826 551.86L36.0376 522.768L-35.0723 490.405M419.183 593.926L586.535 604.258L760.771 606.365L932.7 600.1M419.183 593.926L492.775 547.387M492.775 547.387L527.836 525.227M492.775 547.387L377.335 534.338L277.777 516.503L198.018 494.878M492.775 547.387L618.958 554.91L749.911 556.444L879.275 551.878M527.836 525.227L430.023 514.359L345.164 499.48L276.594 481.367M527.836 525.227L634.355 531.455L744.753 532.73L853.852 528.941M527.836 525.227L626.715 462.7M626.715 462.7L677.677 465.527L730.267 466.1L782.316 464.382M626.715 462.7L579.437 457.709M626.715 462.7L687.838 424.034M687.838 424.034L704.36 424.921L721.347 425.106L738.179 424.57L782.316 464.382M687.838 424.034L717.101 405.533M687.838 424.034L672.44 422.463L579.437 457.709M782.316 464.382L831.687 460.463L956.609 520.347M782.316 464.382L853.852 528.941M853.852 528.941L956.609 520.347M853.852 528.941L879.275 551.878M956.609 520.347L1000.78 541.51M956.609 520.347L1048.42 507.391L1125.5 490.775L1185.03 471.368L1225.26 450.076L1245.51 427.823L1245.98 405.533L1227.61 384.001M1000.78 541.51L1108.85 525.966L1198.93 506.097L1267.76 482.993L1313.44 457.783L1335.37 431.612M1000.78 541.51L879.275 551.878M1000.78 541.51L1046.34 563.356M1335.37 431.612L1334.12 405.533L1311.04 380.47M1335.37 431.612L1067.32 420.3M1335.37 431.612L1516.73 439.264M1311.04 380.47L1268.18 357.238M1311.04 380.47L1393.97 376.977M1311.04 380.47L1227.61 384.001M1268.18 357.238L1208.01 336.482L1133.19 318.683L1046.53 304.266L950.851 293.491M1268.18 357.238L1343.52 350.639L1393.97 376.977M1268.18 357.238L1192.02 363.91M950.851 293.491L848.965 286.56M950.851 293.491L888.369 323.451L813.885 318.221M950.851 293.491L1010.27 265.028M848.965 286.56L743.648 283.566L637.652 284.564L533.691 289.536L434.58 298.407L343.05 311.05L261.954 327.185L194.12 346.518M848.965 286.56L813.885 318.221M848.965 286.56L882.242 256.544L1010.27 265.028M813.885 318.221L736.589 315.947L658.769 316.705L582.598 320.457M813.885 318.221L757.474 369.103M582.598 320.457L510.325 327.129L444.14 336.574L386.178 348.569L338.512 362.819M582.598 320.457L557.835 304.802L471.987 312.602L393.043 323.673L323.522 337.775L265.831 354.613M582.598 320.457L661.039 370.083M338.512 362.819L303.064 378.918M338.512 362.819L412.182 371.118M338.512 362.819L265.831 354.613M303.064 378.918L281.5 396.421M303.064 378.918L384.491 384.148M303.064 378.918L222.336 373.724M281.5 396.421L275.178 414.774L284.99 433.312L311.248 451.333M281.5 396.421L368.124 398.232M281.5 396.421L195.129 394.628M311.248 451.333L353.619 468.097M311.248 451.333L226.563 460.888M311.248 451.333L394.748 441.907M353.619 468.097L410.922 482.883L475.109 466.655M353.619 468.097L276.594 481.367M353.619 468.097L429.15 455.103M475.109 466.655L537.745 450.834M475.109 466.655L531.016 476.081L579.437 457.709M475.109 466.655L429.15 455.103M537.745 450.834L579.437 457.709M537.745 450.834L503.208 442.35M537.745 450.834L717.101 405.533M717.101 405.533L780.22 392.355M717.101 405.533L688.672 387.549M717.101 405.533L753.208 388.215M717.101 405.533L660.03 391.116L648.453 393.722M717.101 405.533L790.653 395.182M717.101 405.533L648.453 393.722M717.101 405.533L767.597 390.007M717.101 405.533L639.281 396.754M717.101 405.533L798.469 398.399M717.101 405.533L768.857 421.446M717.101 405.533L632.882 400.117M717.101 405.533L754.217 423.332L768.857 421.446M717.101 405.533L737.578 387.05M717.101 405.533L882.629 420.042M717.101 405.533L503.208 442.35M717.101 405.533L867.872 426.751M717.101 405.533L546.49 416.493L541.099 409.211L542.108 401.873M717.101 405.533L477.048 432.628M780.22 392.355L790.653 395.182M780.22 392.355L842.081 379.454M780.22 392.355L767.597 390.007M790.653 395.182L798.469 398.399M790.653 395.182L863.005 385.017M798.469 398.399L878.946 391.357M798.469 398.399L803.394 401.892L889.203 398.269M878.946 391.357L958.51 384.37M878.946 391.357L863.005 385.017M878.946 391.357L889.203 398.269M958.51 384.37L974.528 394.684M958.51 384.37L1037.2 377.476M958.51 384.37L934.212 374.981M974.528 394.684L981.528 405.533L979.006 416.585L966.81 427.416M974.528 394.684L889.203 398.269M974.528 394.684L1059.36 391.098M966.81 427.416L882.629 420.042M966.81 427.416L1051.96 434.883M966.81 427.416L945.149 437.619M882.629 420.042L891.2 412.87L893.392 405.533L889.203 398.269M882.629 420.042L867.872 426.751M688.672 387.549L661.039 370.083M688.672 387.549L673.604 389.046L631.213 372.966M688.672 387.549L704.728 386.717L721.231 386.551L737.578 387.05M661.039 370.083L631.213 372.966M661.039 370.083L692.744 368.457L725.244 368.124L757.474 369.103M265.831 354.613L222.336 373.724M265.831 354.613L194.12 346.518M222.336 373.724L195.129 394.628M222.336 373.724L142.266 368.586M195.129 394.628L186.014 416.641L196.292 439.005L226.563 460.888M195.129 394.628L109.009 392.817M226.563 460.888L276.594 481.367M226.563 460.888L140.618 470.592M276.594 481.367L198.018 494.878M879.275 551.878L905.531 575.592M1046.34 563.356L1093.34 585.886L1234.78 564.668L1350.93 537.832L1437.63 506.892L1492.91 473.512L1516.73 439.264M1046.34 563.356L905.531 575.592M1046.34 563.356L1170.97 545.058L1274.05 521.789L1351.95 494.841L1402.66 465.601L1425.79 435.438L1422.24 405.533L1393.97 376.977M1516.73 439.264L1510.4 405.533L1476.46 373.502M1516.73 439.264L1608.2 443.126M1476.46 373.502L1418.02 344.115L1338.61 318.11L1241.83 296.023L1131.23 278.243L1010.27 265.028M1476.46 373.502L1558.47 370.028M1476.46 373.502L1393.97 376.977M1010.27 265.028L1038.89 251.295L1172.19 265.638M194.12 346.518L142.266 368.586M194.12 346.518L53.4904 330.641L-15.8937 358.421L-62.5119 389.231M142.266 368.586L109.009 392.817M142.266 368.586L62.8567 363.485L23.1227 391.024M109.009 392.817L96.5986 418.507L106.818 444.753L140.618 470.592M109.009 392.817L23.1227 391.024M140.618 470.592L198.018 494.878M140.618 470.592L53.4129 480.424M198.018 494.878L117.852 508.684L53.4129 480.424M905.531 575.592L932.7 600.1M1192.02 363.91L1115.04 370.656M1192.02 363.91L1141.17 345.871L1073.27 355.426M1192.02 363.91L1227.61 384.001M1115.04 370.656L1073.27 355.426M1115.04 370.656L1143.74 387.531M1115.04 370.656L1037.2 377.476M1073.27 355.426L1004.29 365.13M1073.27 355.426L1020.21 342.267L962.02 354.41M1004.29 365.13L962.02 354.41M1004.29 365.13L1037.2 377.476M1004.29 365.13L934.212 374.981M962.02 354.41L902.661 366.812M962.02 354.41L911.988 345.631L865.002 360.065M902.661 366.812L865.002 360.065M902.661 366.812L934.212 374.981M902.661 366.812L842.081 379.454M865.002 360.065L816.891 374.851M865.002 360.065L822.592 354.983L788.365 371.377M816.891 374.851L788.365 371.377M816.891 374.851L842.081 379.454M816.891 374.851L767.597 390.007M788.365 371.377L753.208 388.215M788.365 371.377L757.474 369.103M753.208 388.215L767.597 390.007M753.208 388.215L737.578 387.05M648.453 393.722L581.066 382.115M648.453 393.722L639.281 396.754M581.066 382.115L514.921 370.73L486.86 379.546M581.066 382.115L562.547 388.085M581.066 382.115L604.24 377.033L631.213 372.966M486.86 379.546L466.577 389.434M486.86 379.546L562.547 388.085M486.86 379.546L412.182 371.118M466.577 389.434L384.491 384.148M466.577 389.434L455 400.062M466.577 389.434L549.38 394.757M384.491 384.148L368.124 398.232M384.491 384.148L412.182 371.118M23.1227 391.024L6.93042 420.374L16.5488 450.557L53.4129 480.424M23.1227 391.024L-62.5119 389.231M53.4129 480.424L-35.0723 490.405M429.15 455.103L503.208 442.35M429.15 455.103L394.748 441.907M503.208 442.35L477.048 432.628M863.005 385.017L934.212 374.981M863.005 385.017L842.081 379.454M867.872 426.751L945.149 437.619M867.872 426.751L847.414 432.739M639.281 396.754L562.547 388.085M639.281 396.754L632.882 400.117M562.547 388.085L549.38 394.757M412.182 371.118L449.977 359.548L496.323 349.771L549.612 342.026L631.213 372.966M-62.5119 389.231L-83.0095 422.26L-74.5154 456.415L-35.0723 490.405M932.7 600.1L960.799 625.439L1141.83 609.119L1300.42 584.851L1429.58 554.244L1524.83 519.164L1584.27 481.534L1608.2 443.127L1598.54 405.533L1558.47 370.028M932.7 600.1L1093.34 585.887L1141.83 609.12M1558.47 370.028L1491.77 337.646L1402.45 309.127L1294.61 285.007L1172.19 265.638M1227.61 384.001L1143.74 387.531M1143.74 387.531L1157.82 405.533L1156.15 424.052L1138.12 442.424L1051.96 434.883M1143.74 387.531L1059.36 391.098M1037.2 377.476L1059.36 391.098M632.882 400.117L549.38 394.757M632.882 400.117L629.468 403.703L542.108 401.873M549.38 394.757L542.108 401.873M542.108 401.873L455 400.062M1059.36 391.098L1069.68 405.533L1067.32 420.3M1067.32 420.3L1051.96 434.883M1067.32 420.3L803.903 409.192L799.404 412.741L791.861 416.049L781.564 418.988L717.105 405.533L627.515 269.131L617.663 254.104L608.045 239.484M1051.96 434.883L1023.76 448.671L945.149 437.619M945.149 437.619L914.665 446.768L847.414 432.739M847.414 432.739L781.559 418.988L768.857 421.446M847.414 432.739L821.933 437.766L768.857 421.446M455 400.062L368.124 398.232M455 400.062L452.711 411.059L460.081 422.056L477.048 432.628M368.124 398.232L364.071 412.907L372.914 427.657L394.748 441.907M394.748 441.907L477.048 432.628M737.578 387.05L757.474 369.103M1172.19 265.638L1089.37 291.108L980.929 279.076L865.839 271.35L747.044 268.023L627.513 269.132L510.191 274.677L398.047 284.565L294.108 298.686L201.473 316.78L83.6279 296.486M-124.896 500.351L-47.4639 536.947L65.1254 570.031L209.711 597.681L380.554 618.159L419.183 593.725M-124.896 500.351L-166.414 462.11L-173.201 423.944L-147.894 387.256L-62.5119 389.03M-124.896 500.351L-35.0723 490.204M419.183 593.725L267.248 575.871L137.826 551.659L36.0376 522.567L-35.0723 490.204M419.183 593.725L586.535 604.057L760.771 606.164L932.7 599.898L960.799 625.238L1141.83 608.918L1300.42 584.65L1429.58 554.043L1524.83 518.963L1584.27 481.332L1608.2 442.925L1598.54 405.332L1558.47 369.826M419.183 593.725L492.775 547.186M-62.5119 389.03L-15.8938 358.219L53.4904 330.44L194.12 346.316M-62.5119 389.03L23.1227 390.823M-62.5119 389.03L-83.0095 422.058L-74.5154 456.214L-35.0723 490.204M-35.0723 490.204L53.4129 480.223M492.775 547.186L527.836 525.025M492.775 547.186L377.335 534.137L277.777 516.301L198.018 494.677M492.775 547.186L618.958 554.708L749.911 556.242L879.275 551.677M1558.47 369.826L1476.46 373.301M1558.47 369.826L1491.77 337.445L1402.45 308.926L1294.61 284.806L1172.19 265.436L1038.89 251.094L1010.27 264.827M527.836 525.025L430.023 514.158L345.164 499.279L276.594 481.166M527.836 525.025L634.355 531.254L744.753 532.529L853.852 528.74M527.836 525.025L626.715 462.498M198.018 494.677L276.594 481.166M198.018 494.677L140.618 470.391M198.018 494.677L117.852 508.483L53.4129 480.223M879.275 551.677L853.852 528.74M879.275 551.677L1000.78 541.308M879.275 551.677L905.531 575.391L1046.34 563.155M626.715 462.498L677.677 465.326L730.267 465.899L782.316 464.18M626.715 462.498L579.437 457.508M626.715 462.498L687.838 423.833M276.594 481.166L353.619 467.895M276.594 481.166L226.563 460.687M853.852 528.74L956.609 520.146M853.852 528.74L782.316 464.18M687.838 423.833L704.36 424.72L721.347 424.905L738.179 424.369L782.316 464.18M687.838 423.833L717.101 405.332M687.838 423.833L672.44 422.262L579.437 457.508M782.316 464.18L831.687 460.262L956.609 520.146M579.437 457.508L531.016 475.88L475.109 466.454M579.437 457.508L537.745 450.633M717.101 405.332L780.22 392.154M717.101 405.332L688.671 387.348M717.101 405.332L753.208 388.013M717.101 405.332L660.03 390.915L648.452 393.521M717.101 405.332L790.653 394.981M717.101 405.332L648.452 393.521M717.101 405.332L767.597 389.806M717.101 405.332L639.281 396.552M717.101 405.332L798.469 398.197M717.101 405.332L768.857 421.245M717.101 405.332L632.881 399.916M717.101 405.332L754.217 423.13L768.857 421.245M717.101 405.332L737.578 386.849M717.101 405.332L537.745 450.633M717.101 405.332L882.629 419.841M717.101 405.332L503.208 442.149M717.101 405.332L867.872 426.55M717.101 405.332L546.49 416.292L541.099 409.01L542.108 401.672M717.101 405.332L477.048 432.427M956.609 520.146L1000.78 541.308M956.609 520.146L1048.42 507.19L1125.5 490.574L1185.03 471.167L1225.26 449.875L1245.51 427.622L1245.98 405.332L1227.61 383.799M1000.78 541.308L1108.85 525.765L1198.93 505.896L1267.76 482.792L1313.44 457.582L1335.37 431.411L1334.12 405.332L1311.04 380.269M1000.78 541.308L1046.34 563.155M1227.61 383.799L1311.04 380.269M1227.61 383.799L1192.02 363.709M1227.61 383.799L1143.74 387.33M1311.04 380.269L1268.18 357.037M1311.04 380.269L1393.97 376.776M1046.34 563.155L1093.34 585.685L1234.78 564.467L1350.93 537.63L1437.63 506.691L1492.91 473.311L1516.73 439.063L1510.4 405.332L1476.46 373.301M1046.34 563.155L1170.97 544.857L1274.05 521.587L1351.95 494.64L1402.66 465.4L1425.79 435.237L1422.24 405.332L1393.97 376.776M1268.18 357.037L1208.01 336.281L1133.19 318.482L1046.53 304.065L950.85 293.29M1268.18 357.037L1343.52 350.438L1393.97 376.776M1268.18 357.037L1192.02 363.709M1393.97 376.776L1476.46 373.301M950.85 293.29L848.965 286.359M950.85 293.29L888.369 323.25L813.885 318.02M950.85 293.29L1010.27 264.827M1192.02 363.709L1115.04 370.455M1192.02 363.709L1141.17 345.67L1073.27 355.225M848.965 286.359L743.648 283.365L637.652 284.363L533.691 289.335L434.58 298.206L343.05 310.848L261.954 326.984L194.12 346.316M848.965 286.359L813.885 318.02M848.965 286.359L882.242 256.343L1010.27 264.827M813.885 318.02L736.589 315.746L658.769 316.504L582.598 320.256M813.885 318.02L757.474 368.902M1010.27 264.827L1131.23 278.042L1241.83 295.822L1338.61 317.909L1418.02 343.914L1476.46 373.301M194.12 346.316L265.831 354.412M194.12 346.316L142.266 368.385M582.598 320.256L510.324 326.928L444.14 336.373L386.178 348.368L338.512 362.618M582.598 320.256L557.835 304.601L471.987 312.401L393.043 323.472L323.522 337.574L265.831 354.412M582.598 320.256L661.039 369.882M757.474 368.902L725.244 367.923L692.744 368.255L661.039 369.882M757.474 368.902L788.365 371.176M757.474 368.902L737.578 386.849M338.512 362.618L303.064 378.717M338.512 362.618L412.182 370.917M338.512 362.618L265.831 354.412M661.039 369.882L688.671 387.348M661.039 369.882L631.213 372.765M265.831 354.412L222.336 373.523M303.064 378.717L281.5 396.22M303.064 378.717L384.491 383.947M303.064 378.717L222.336 373.523M412.182 370.917L486.86 379.345M412.182 370.917L384.491 383.947M412.182 370.917L449.977 359.347L496.323 349.569L549.612 341.825L631.213 372.765M281.5 396.22L275.178 414.573L284.99 433.111L311.248 451.132M281.5 396.22L368.124 398.031M281.5 396.22L195.129 394.427M384.491 383.947L466.577 389.233M384.491 383.947L368.124 398.031M222.336 373.523L195.129 394.427M222.336 373.523L142.266 368.385M311.248 451.132L353.619 467.895M311.248 451.132L226.563 460.687M311.248 451.132L394.748 441.705M368.124 398.031L455 399.861M368.124 398.031L364.071 412.706L372.914 427.455L394.748 441.705M195.129 394.427L186.014 416.44L196.292 438.804L226.563 460.687M195.129 394.427L109.009 392.616M353.619 467.895L410.922 482.682L475.109 466.454M353.619 467.895L429.15 454.902M226.563 460.687L140.618 470.391M394.748 441.705L429.15 454.902M394.748 441.705L477.048 432.427M475.109 466.454L537.745 450.633M475.109 466.454L429.15 454.902M429.15 454.902L503.208 442.149M537.745 450.633L503.208 442.149M503.208 442.149L477.048 432.427M780.22 392.154L790.653 394.981M780.22 392.154L842.081 379.253M780.22 392.154L767.597 389.806M882.629 419.841L966.81 427.215M882.629 419.841L891.2 412.669L893.392 405.332L889.203 398.068M882.629 419.841L867.872 426.55M688.671 387.348L673.604 388.845L631.213 372.765M688.671 387.348L704.728 386.516L721.231 386.35L737.578 386.849M753.208 388.013L788.365 371.176M753.208 388.013L767.597 389.806M753.208 388.013L737.578 386.849M648.452 393.521L581.066 381.914M648.452 393.521L639.281 396.552M790.653 394.981L798.469 398.197M790.653 394.981L863.005 384.816M867.872 426.55L945.149 437.418M867.872 426.55L847.414 432.538M767.597 389.806L816.891 374.65M639.281 396.552L562.547 387.884M639.281 396.552L632.881 399.916M542.108 401.672L629.468 403.502L632.881 399.916M542.108 401.672L549.38 394.556M542.108 401.672L455 399.861M798.469 398.197L878.946 391.155M798.469 398.197L803.394 401.69L889.203 398.068M768.857 421.245L781.559 418.787L847.414 432.538M768.857 421.245L821.933 437.565L847.414 432.538M632.881 399.916L549.38 394.556M477.048 432.427L460.081 421.855L452.711 410.858L455 399.861M842.081 379.253L902.661 366.61M842.081 379.253L816.891 374.65M842.081 379.253L863.005 384.816M863.005 384.816L878.946 391.155M863.005 384.816L934.212 374.78M878.946 391.155L958.51 384.169M878.946 391.155L889.203 398.068M889.203 398.068L974.528 394.482M958.51 384.169L974.528 394.482M958.51 384.169L1037.2 377.275M958.51 384.169L934.212 374.78M974.528 394.482L981.528 405.332L979.006 416.384L966.81 427.215M974.528 394.482L1059.36 390.897M1037.2 377.275L1115.04 370.455M1037.2 377.275L1004.29 364.929M1037.2 377.275L1059.36 390.897M934.212 374.78L1004.29 364.929M934.212 374.78L902.661 366.61M966.81 427.215L1051.96 434.682M966.81 427.215L945.149 437.418M1059.36 390.897L1143.74 387.33M1059.36 390.897L1069.68 405.332L1067.32 420.099L1051.96 434.682M1051.96 434.682L1138.12 442.223L1156.15 423.851L1157.82 405.332L1143.74 387.33M1051.96 434.682L1023.76 448.47L945.149 437.418M945.149 437.418L914.665 446.566L847.414 432.538M631.213 372.765L604.239 376.831L581.066 381.914M142.266 368.385L109.009 392.616M142.266 368.385L62.8567 363.284L23.1227 390.823M109.009 392.616L96.5986 418.306L106.818 444.552L140.618 470.391M109.009 392.616L23.1227 390.823M140.618 470.391L53.4129 480.223M23.1227 390.823L6.93042 420.173L16.5488 450.355L53.4129 480.223M1115.04 370.455L1073.27 355.225M1115.04 370.455L1143.74 387.33M1073.27 355.225L1004.29 364.929M1073.27 355.225L1020.21 342.065L962.02 354.209M1004.29 364.929L962.02 354.209M962.02 354.209L902.661 366.61M962.02 354.209L911.988 345.429L865.002 359.864M902.661 366.61L865.002 359.864M865.002 359.864L816.891 374.65M865.002 359.864L822.592 354.781L788.365 371.176M816.891 374.65L788.365 371.176M581.066 381.914L514.921 370.529L486.86 379.345M581.066 381.914L562.547 387.884M486.86 379.345L466.577 389.233M486.86 379.345L562.547 387.884M562.547 387.884L549.38 394.556M466.577 389.233L455 399.861M466.577 389.233L549.38 394.556M717.1 405.536L803.393 401.895M717.1 405.536L569.471 630.247M-47.4668 537.149L117.849 508.686L208.681 533.97M208.681 533.97L323.093 554.911L481.233 494.953M208.681 533.97L65.1224 570.234M208.681 533.97L410.919 482.885L481.233 494.953M481.233 494.953L561.807 503.733L649.265 508.779L739.766 509.795L829.241 506.746L913.731 499.797L989.553 489.298L1300.42 584.853M-93.9805 353.396L-147.891 387.461M-93.9805 353.396L-15.4442 322.864L83.629 296.49L199.243 274.717L660.034 391.121L673.608 389.051L717.104 405.537L766.495 632.671M-93.9805 353.396L62.8617 363.488L123.345 338.536L201.475 316.782L514.926 370.733L549.695 363.247L589.895 357.314L634.185 353.1L681.095 350.716L729.148 350.235L776.813 351.659L822.597 354.985L888.374 323.454L957.875 331.531L1089.38 291.109L1188.04 307.245L1273.81 327.225L1343.52 350.642L1491.77 337.649M-15.4472 322.864L53.491 330.645L142.035 306.544L246.169 286.583L362.384 271.057L487.288 260.189L617.659 254.108L750.339 252.889L882.243 256.548L898.24 242.113M327.558 257.84L549.614 342.028L608.042 336.557L669.767 333.471L732.926 332.842L795.6 334.709L855.909 338.997L911.99 345.633L957.872 331.53L1020.21 342.269L1294.61 285.009M464.943 246.049L557.83 304.805L648.06 300.425L740.172 299.538L831.663 302.181L920.012 308.28L1002.7 317.743L1077.24 330.367L1141.16 345.874L1402.44 309.13M803.39 401.895L805.232 405.536L803.894 409.195M629.465 403.705L629.213 407.365L632.16 410.987L638.191 414.443L647.151 417.567L658.689 420.284L672.437 422.465L717.097 405.535L803.895 409.194" stroke="#C1BBF6" stroke-linecap="round" stroke-linejoin="round"/>
<g filter="url(#filter0_d_2527_6513)">
<circle cx="456.5" cy="415.17" r="4.5" fill="#C1BBF6"/>
</g>
<g filter="url(#filter1_d_2527_6513)">
<circle cx="284.5" cy="348.17" r="4.5" fill="#C1BBF6"/>
</g>
<g filter="url(#filter2_d_2527_6513)">
<circle cx="404.5" cy="509.17" r="4.5" fill="#C1BBF6"/>
</g>
<g filter="url(#filter3_d_2527_6513)">
<circle cx="694.5" cy="556.17" r="4.5" fill="#C1BBF6"/>
</g>
<g filter="url(#filter4_d_2527_6513)">
<circle cx="809.5" cy="463.17" r="4.5" fill="#C1BBF6"/>
</g>
<g filter="url(#filter5_d_2527_6513)">
<circle cx="1082.5" cy="499.17" r="4.5" fill="#C1BBF6"/>
</g>
<g filter="url(#filter6_d_2527_6513)">
<circle cx="1059.5" cy="427.17" r="4.5" fill="#C1BBF6"/>
</g>
<g filter="url(#filter7_d_2527_6513)">
<circle cx="1241.5" cy="347.17" r="4.5" fill="#C1BBF6"/>
</g>
<g opacity="0.5" filter="url(#filter8_f_2527_6513)">
<path d="M736 284.67H696L717.036 430.67L736 284.67Z" fill="white"/>
</g>
<g filter="url(#filter9_f_2527_6513)">
<path d="M825 304.67H607L721.645 450.67L825 304.67Z" fill="#C1BBF6"/>
</g>
<path d="M794 270.17C794 312.42 759.75 346.67 717.5 346.67C675.25 346.67 641 312.42 641 270.17C641 227.92 675.25 193.67 717.5 193.67C759.75 193.67 794 227.92 794 270.17Z" fill="black"/>
<path d="M759.842 298.652C755.492 306.22 747.445 310.874 738.723 310.874H724.618V263.313L704.261 298.663C699.911 306.231 691.863 310.885 683.142 310.885H669.135V240.696H697.312V288.137L724.618 240.718V240.696H752.784V288.333L782.375 236.923C783.571 234.835 783.549 232.247 782.255 230.214C768.607 208.663 744.411 194.451 716.919 194.864C674.997 195.517 641.97 229.257 642.187 271.175C642.405 312.907 676.312 346.669 718.094 346.669C759.875 346.669 794 312.69 794 270.772C794 264.02 793.108 257.474 791.444 251.233C790.944 249.341 788.421 248.993 787.442 250.678L759.831 298.641L759.842 298.652Z" fill="#C1BBF6"/>
<path d="M707 362.67C707 362.118 706.553 361.67 706 361.67C705.448 361.67 705 362.118 705 362.67C705 363.222 705.448 363.67 706 363.67C706.553 363.67 707 363.222 707 362.67Z" fill="white"/>
<path d="M756 349.67C756 349.118 755.553 348.67 755 348.67C754.448 348.67 754 349.118 754 349.67C754 350.222 754.448 350.67 755 350.67C755.553 350.67 756 350.222 756 349.67Z" fill="white"/>
<path d="M700 358.67C700 358.118 699.553 357.67 699 357.67C698.448 357.67 698 358.118 698 358.67C698 359.222 698.448 359.67 699 359.67C699.553 359.67 700 359.222 700 358.67Z" fill="white"/>
<path d="M726 338.67C726 338.118 725.553 337.67 725 337.67C724.448 337.67 724 338.118 724 338.67C724 339.222 724.448 339.67 725 339.67C725.553 339.67 726 339.222 726 338.67Z" fill="white"/>
<path d="M679 393.67C679 393.118 678.553 392.67 678 392.67C677.448 392.67 677 393.118 677 393.67C677 394.222 677.448 394.67 678 394.67C678.553 394.67 679 394.222 679 393.67Z" fill="white"/>
<path d="M615.301 267.211C615.799 267.45 616.01 268.047 615.772 268.545C615.533 269.043 614.936 269.254 614.438 269.016C613.94 268.777 613.729 268.18 613.967 267.682C614.205 267.184 614.803 266.973 615.301 267.211Z" fill="white"/>
<path d="M644.053 299.803C644.551 300.041 644.762 300.638 644.524 301.137C644.286 301.635 643.689 301.846 643.19 301.607C642.692 301.369 642.481 300.772 642.72 300.274C642.958 299.776 643.555 299.565 644.053 299.803Z" fill="white"/>
<path d="M607.222 291.059C607.72 291.297 607.931 291.894 607.693 292.393C607.455 292.891 606.858 293.102 606.359 292.863C605.861 292.625 605.65 292.028 605.889 291.53C606.127 291.032 606.724 290.821 607.222 291.059Z" fill="white"/>
<path d="M663.031 183.623C663.53 183.862 663.74 184.459 663.502 184.957C663.264 185.455 662.667 185.666 662.168 185.428C661.67 185.19 661.459 184.592 661.698 184.094C661.936 183.596 662.533 183.385 663.031 183.623Z" fill="white"/>
<path d="M676.76 201.274C677.259 201.512 677.469 202.109 677.231 202.607C676.993 203.106 676.396 203.316 675.897 203.078C675.399 202.84 675.188 202.243 675.427 201.745C675.665 201.246 676.262 201.036 676.76 201.274Z" fill="white"/>
<path d="M712.758 10.0981C713.256 10.3363 713.467 10.9334 713.229 11.4316C712.99 11.9299 712.393 12.1406 711.895 11.9024C711.397 11.6641 711.186 11.0671 711.424 10.5688C711.663 10.0706 712.26 9.85981 712.758 10.0981Z" fill="white"/>
<path d="M688.846 303.489C689.344 303.727 689.555 304.324 689.317 304.822C689.079 305.321 688.482 305.531 687.983 305.293C687.485 305.055 687.274 304.458 687.513 303.959C687.751 303.461 688.348 303.25 688.846 303.489Z" fill="white"/>
<rect y="-137" width="700" height="770" fill="url(#paint0_linear_2527_6513)"/>
<rect width="700" height="770" transform="matrix(-1 0 0 1 1441 -137)" fill="url(#paint1_linear_2527_6513)"/>
</g>
<defs>
<filter id="filter0_d_2527_6513" x="438" y="402.67" width="37" height="37" filterUnits="userSpaceOnUse" color-interpolation-filters="sRGB">
<feFlood flood-opacity="0" result="BackgroundImageFix"/>
<feColorMatrix in="SourceAlpha" type="matrix" values="0 0 0 0 0 0 0 0 0 0 0 0 0 0 0 0 0 0 127 0" result="hardAlpha"/>
<feOffset dy="6"/>
<feGaussianBlur stdDeviation="7"/>
<feComposite in2="hardAlpha" operator="out"/>
<feColorMatrix type="matrix" values="0 0 0 0 0.652185 0 0 0 0 0.634997 0 0 0 0 0.836963 0 0 0 1 0"/>
<feBlend mode="normal" in2="BackgroundImageFix" result="effect1_dropShadow_2527_6513"/>
<feBlend mode="normal" in="SourceGraphic" in2="effect1_dropShadow_2527_6513" result="shape"/>
</filter>
<filter id="filter1_d_2527_6513" x="266" y="335.67" width="37" height="37" filterUnits="userSpaceOnUse" color-interpolation-filters="sRGB">
<feFlood flood-opacity="0" result="BackgroundImageFix"/>
<feColorMatrix in="SourceAlpha" type="matrix" values="0 0 0 0 0 0 0 0 0 0 0 0 0 0 0 0 0 0 127 0" result="hardAlpha"/>
<feOffset dy="6"/>
<feGaussianBlur stdDeviation="7"/>
<feComposite in2="hardAlpha" operator="out"/>
<feColorMatrix type="matrix" values="0 0 0 0 0.652185 0 0 0 0 0.634997 0 0 0 0 0.836963 0 0 0 1 0"/>
<feBlend mode="normal" in2="BackgroundImageFix" result="effect1_dropShadow_2527_6513"/>
<feBlend mode="normal" in="SourceGraphic" in2="effect1_dropShadow_2527_6513" result="shape"/>
</filter>
<filter id="filter2_d_2527_6513" x="386" y="496.67" width="37" height="37" filterUnits="userSpaceOnUse" color-interpolation-filters="sRGB">
<feFlood flood-opacity="0" result="BackgroundImageFix"/>
<feColorMatrix in="SourceAlpha" type="matrix" values="0 0 0 0 0 0 0 0 0 0 0 0 0 0 0 0 0 0 127 0" result="hardAlpha"/>
<feOffset dy="6"/>
<feGaussianBlur stdDeviation="7"/>
<feComposite in2="hardAlpha" operator="out"/>
<feColorMatrix type="matrix" values="0 0 0 0 0.652185 0 0 0 0 0.634997 0 0 0 0 0.836963 0 0 0 1 0"/>
<feBlend mode="normal" in2="BackgroundImageFix" result="effect1_dropShadow_2527_6513"/>
<feBlend mode="normal" in="SourceGraphic" in2="effect1_dropShadow_2527_6513" result="shape"/>
</filter>
<filter id="filter3_d_2527_6513" x="676" y="543.67" width="37" height="37" filterUnits="userSpaceOnUse" color-interpolation-filters="sRGB">
<feFlood flood-opacity="0" result="BackgroundImageFix"/>
<feColorMatrix in="SourceAlpha" type="matrix" values="0 0 0 0 0 0 0 0 0 0 0 0 0 0 0 0 0 0 127 0" result="hardAlpha"/>
<feOffset dy="6"/>
<feGaussianBlur stdDeviation="7"/>
<feComposite in2="hardAlpha" operator="out"/>
<feColorMatrix type="matrix" values="0 0 0 0 0.652185 0 0 0 0 0.634997 0 0 0 0 0.836963 0 0 0 1 0"/>
<feBlend mode="normal" in2="BackgroundImageFix" result="effect1_dropShadow_2527_6513"/>
<feBlend mode="normal" in="SourceGraphic" in2="effect1_dropShadow_2527_6513" result="shape"/>
</filter>
<filter id="filter4_d_2527_6513" x="791" y="450.67" width="37" height="37" filterUnits="userSpaceOnUse" color-interpolation-filters="sRGB">
<feFlood flood-opacity="0" result="BackgroundImageFix"/>
<feColorMatrix in="SourceAlpha" type="matrix" values="0 0 0 0 0 0 0 0 0 0 0 0 0 0 0 0 0 0 127 0" result="hardAlpha"/>
<feOffset dy="6"/>
<feGaussianBlur stdDeviation="7"/>
<feComposite in2="hardAlpha" operator="out"/>
<feColorMatrix type="matrix" values="0 0 0 0 0.652185 0 0 0 0 0.634997 0 0 0 0 0.836963 0 0 0 1 0"/>
<feBlend mode="normal" in2="BackgroundImageFix" result="effect1_dropShadow_2527_6513"/>
<feBlend mode="normal" in="SourceGraphic" in2="effect1_dropShadow_2527_6513" result="shape"/>
</filter>
<filter id="filter5_d_2527_6513" x="1064" y="486.67" width="37" height="37" filterUnits="userSpaceOnUse" color-interpolation-filters="sRGB">
<feFlood flood-opacity="0" result="BackgroundImageFix"/>
<feColorMatrix in="SourceAlpha" type="matrix" values="0 0 0 0 0 0 0 0 0 0 0 0 0 0 0 0 0 0 127 0" result="hardAlpha"/>
<feOffset dy="6"/>
<feGaussianBlur stdDeviation="7"/>
<feComposite in2="hardAlpha" operator="out"/>
<feColorMatrix type="matrix" values="0 0 0 0 0.652185 0 0 0 0 0.634997 0 0 0 0 0.836963 0 0 0 1 0"/>
<feBlend mode="normal" in2="BackgroundImageFix" result="effect1_dropShadow_2527_6513"/>
<feBlend mode="normal" in="SourceGraphic" in2="effect1_dropShadow_2527_6513" result="shape"/>
</filter>
<filter id="filter6_d_2527_6513" x="1041" y="414.67" width="37" height="37" filterUnits="userSpaceOnUse" color-interpolation-filters="sRGB">
<feFlood flood-opacity="0" result="BackgroundImageFix"/>
<feColorMatrix in="SourceAlpha" type="matrix" values="0 0 0 0 0 0 0 0 0 0 0 0 0 0 0 0 0 0 127 0" result="hardAlpha"/>
<feOffset dy="6"/>
<feGaussianBlur stdDeviation="7"/>
<feComposite in2="hardAlpha" operator="out"/>
<feColorMatrix type="matrix" values="0 0 0 0 0.652185 0 0 0 0 0.634997 0 0 0 0 0.836963 0 0 0 1 0"/>
<feBlend mode="normal" in2="BackgroundImageFix" result="effect1_dropShadow_2527_6513"/>
<feBlend mode="normal" in="SourceGraphic" in2="effect1_dropShadow_2527_6513" result="shape"/>
</filter>
<filter id="filter7_d_2527_6513" x="1223" y="334.67" width="37" height="37" filterUnits="userSpaceOnUse" color-interpolation-filters="sRGB">
<feFlood flood-opacity="0" result="BackgroundImageFix"/>
<feColorMatrix in="SourceAlpha" type="matrix" values="0 0 0 0 0 0 0 0 0 0 0 0 0 0 0 0 0 0 127 0" result="hardAlpha"/>
<feOffset dy="6"/>
<feGaussianBlur stdDeviation="7"/>
<feComposite in2="hardAlpha" operator="out"/>
<feColorMatrix type="matrix" values="0 0 0 0 0.652185 0 0 0 0 0.634997 0 0 0 0 0.836963 0 0 0 1 0"/>
<feBlend mode="normal" in2="BackgroundImageFix" result="effect1_dropShadow_2527_6513"/>
<feBlend mode="normal" in="SourceGraphic" in2="effect1_dropShadow_2527_6513" result="shape"/>
</filter>
<filter id="filter8_f_2527_6513" x="646" y="234.67" width="140" height="246" filterUnits="userSpaceOnUse" color-interpolation-filters="sRGB">
<feFlood flood-opacity="0" result="BackgroundImageFix"/>
<feBlend mode="normal" in="SourceGraphic" in2="BackgroundImageFix" result="shape"/>
<feGaussianBlur stdDeviation="25" result="effect1_foregroundBlur_2527_6513"/>
</filter>
<filter id="filter9_f_2527_6513" x="497" y="194.67" width="438" height="366" filterUnits="userSpaceOnUse" color-interpolation-filters="sRGB">
<feFlood flood-opacity="0" result="BackgroundImageFix"/>
<feBlend mode="normal" in="SourceGraphic" in2="BackgroundImageFix" result="shape"/>
<feGaussianBlur stdDeviation="55" result="effect1_foregroundBlur_2527_6513"/>
</filter>
<linearGradient id="paint0_linear_2527_6513" x1="8.47034e-06" y1="197.853" x2="700" y2="197.853" gradientUnits="userSpaceOnUse">
<stop/>
<stop offset="1" stop-opacity="0"/>
</linearGradient>
<linearGradient id="paint1_linear_2527_6513" x1="8.47034e-06" y1="334.853" x2="700" y2="334.853" gradientUnits="userSpaceOnUse">
<stop/>
<stop offset="1" stop-opacity="0"/>
</linearGradient>
<clipPath id="clip0_2527_6513">
<rect width="1441" height="633" fill="white"/>
</clipPath>
</defs>
</svg>
